<svg xmlns="http://www.w3.org/2000/svg" viewBox="0 0 842 181" width="200" height="43">
	<style>
		tspan { white-space:pre }
		.shp0 { fill: #1877f2 } 
	</style>
	<path id="Layer" class="shp0" d="M73.43 31.68C63.78 31.68 60.99 35.96 60.99 45.4L60.99 61.06L86.73 61.06L84.15 86.36L61 86.36L61 163.14L30.11 163.14L30.11 86.36L9.3 86.36L9.3 61.06L30.11 61.06L30.11 45.83C30.11 20.31 40.4 6.83 69.11 6.83C70.61 6.83 72.12 6.85 73.62 6.89C75.12 6.93 76.63 7 78.13 7.09C79.63 7.18 81.13 7.29 82.62 7.42C84.12 7.56 85.62 7.72 87.11 7.9L87.11 31.71L73.43 31.68Z" />
	<path id="Layer" fill-rule="evenodd" class="shp0" d="M88.87 108.88C88.87 80.36 102.38 58.88 130.69 58.88C146.13 58.88 155.56 66.82 160.07 76.68L160.07 61.06L189.66 61.06L189.66 163.14L160.07 163.14L160.07 147.7C155.78 157.57 146.13 165.29 130.69 165.29C102.38 165.29 88.87 143.84 88.87 115.29L88.87 108.88ZM119.75 115.75C119.75 130.97 125.32 141.05 139.69 141.05C152.35 141.05 158.78 131.83 158.78 117.25L158.78 107C158.78 92.42 152.35 83.2 139.69 83.2C125.32 83.2 119.75 93.28 119.75 108.5L119.75 115.75Z" />
	<path id="Layer" class="shp0" d="M254 58.91C266 58.91 277.37 61.49 283.59 65.77L276.73 87.65C275.13 86.89 273.48 86.21 271.81 85.63C270.13 85.05 268.42 84.55 266.69 84.16C264.96 83.76 263.21 83.46 261.45 83.25C259.69 83.05 257.91 82.94 256.14 82.93C239.41 82.93 232.14 92.58 232.14 109.1L232.14 115.1C232.14 131.62 239.43 141.27 256.14 141.27C257.91 141.26 259.69 141.15 261.45 140.95C263.21 140.74 264.96 140.44 266.69 140.04C268.42 139.65 270.13 139.15 271.81 138.57C273.48 137.99 275.13 137.31 276.73 136.55L283.59 158.42C277.37 162.71 266.01 165.29 254 165.29C217.75 165.29 201.24 145.77 201.24 114.46L201.24 109.74C201.24 78.43 217.75 58.91 254 58.91Z" />
	<path id="Layer" fill-rule="evenodd" class="shp0" d="M287.66 116L287.66 107C287.66 78.05 304.17 59 337.85 59C369.59 59 383.53 78.3 383.53 106.61L383.53 122.91L318.53 122.91C319.18 136.85 325.4 143.07 342.53 143.07C354.12 143.07 366.34 140.71 375.35 136.85L381 158C372.85 162.3 356.12 165.51 341.33 165.51C302.24 165.5 287.66 146 287.66 116ZM318.54 102.7L355.86 102.7L355.86 100.13C355.86 88.98 351.36 80.13 337.86 80.13C323.91 80.14 318.54 88.94 318.54 102.66L318.54 102.7Z" />
	<path id="Layer" fill-rule="evenodd" class="shp0" d="M498 115.32C498 143.84 484.28 165.32 456 165.32C440.56 165.32 429.84 157.6 425.55 147.73L425.55 163.17L396.39 163.17L396.39 9.8L427.27 7L427.27 75.2C431.77 66.2 441.64 58.9 456.01 58.9C484.32 58.9 498.01 80.35 498.01 108.9L498 115.32ZM467.12 108.24C467.12 93.87 461.55 83.15 446.75 83.15C434.09 83.15 427.23 92.15 427.23 106.74L427.23 117.46C427.23 132.04 434.09 141.05 446.75 141.05C461.55 141.05 467.12 130.33 467.12 115.96L467.12 108.24Z" />
	<path id="Layer" fill-rule="evenodd" class="shp0" d="M508.33 114.67L508.33 109.53C508.33 80.14 525.06 58.91 559.16 58.91C593.26 58.91 610 80.14 610 109.53L610 114.67C610 144.05 593.27 165.29 559.17 165.29C525.07 165.29 508.33 144.05 508.33 114.67ZM579.11 107.38C579.11 93.87 573.53 83.15 559.11 83.15C544.69 83.15 539.16 93.87 539.16 107.38L539.16 116.82C539.16 130.33 544.74 141.05 559.11 141.05C573.48 141.05 579.11 130.33 579.11 116.82L579.11 107.38Z" />
	<path id="Layer" fill-rule="evenodd" class="shp0" d="M620.27 114.67L620.27 109.53C620.27 80.14 637 58.91 671.1 58.91C705.2 58.91 721.93 80.14 721.93 109.53L721.93 114.67C721.93 144.05 705.2 165.29 671.1 165.29C637 165.29 620.27 144.05 620.27 114.67ZM691.05 107.38C691.05 93.87 685.47 83.15 671.1 83.15C656.73 83.15 651.16 93.87 651.16 107.38L651.16 116.82C651.16 130.33 656.73 141.05 671.1 141.05C685.47 141.05 691.05 130.33 691.05 116.82L691.05 107.38Z" />
	<path id="Layer" class="shp0" d="M764.39 109.74L794.84 61.06L827.65 61.06L795.7 111.46L828.94 163.14L796.13 163.14L764.39 113.14L764.39 163.14L733.5 163.14L733.5 9.8L764.39 7L764.39 109.74Z" />
</svg>